<svg width="34" height="19" viewBox="0 0 34 19" fill="none" xmlns="http://www.w3.org/2000/svg">
<path d="M1.07422 18.3281C0.769531 18.3281 0.539062 18.2617 0.382812 18.1289C0.226562 17.9961 0.136719 17.832 0.113281 17.6367C0.0976562 17.4336 0.144531 17.2305 0.253906 17.0273C1.58984 14.4102 2.92578 11.793 4.26172 9.17578C5.60547 6.55859 6.94531 3.94531 8.28125 1.33594C8.36719 1.15625 8.47656 1.01953 8.60938 0.925781C8.75 0.832031 8.92188 0.785156 9.125 0.785156H9.88672C10.0898 0.785156 10.2305 0.859375 10.3086 1.00781C10.3945 1.14844 10.3984 1.31641 10.3203 1.51172C9.24219 4.17578 8.16406 6.83984 7.08594 9.50391C6.00781 12.168 4.92969 14.8281 3.85156 17.4844C3.75 17.7344 3.60156 17.9375 3.40625 18.0938C3.21875 18.25 2.94922 18.3281 2.59766 18.3281H1.07422ZM31.4023 18.3281C31.0508 18.3281 30.7773 18.25 30.582 18.0938C30.3945 17.9375 30.25 17.7344 30.1484 17.4844C29.0781 14.8281 28 12.168 26.9141 9.50391C25.8359 6.83984 24.7578 4.17578 23.6797 1.51172C23.6016 1.31641 23.6016 1.14844 23.6797 1.00781C23.7656 0.859375 23.9102 0.785156 24.1133 0.785156H24.875C25.0781 0.785156 25.2461 0.832031 25.3789 0.925781C25.5195 1.01953 25.6367 1.15625 25.7305 1.33594C27.0664 3.94531 28.4023 6.55859 29.7383 9.17578C31.082 11.793 32.418 14.4102 33.7461 17.0273C33.8555 17.2305 33.8984 17.4336 33.875 17.6367C33.8594 17.832 33.7734 17.9961 33.6172 18.1289C33.4609 18.2617 33.2344 18.3281 32.9375 18.3281H31.4023ZM16.7305 3.98438C16.4883 3.98438 16.2852 3.90625 16.1211 3.75C15.957 3.58594 15.875 3.37891 15.875 3.12891C15.875 2.88672 15.875 2.64062 15.875 2.39062C15.875 2.13281 15.875 1.88281 15.875 1.64062C15.875 1.39063 15.957 1.1875 16.1211 1.03125C16.2852 0.867188 16.4883 0.785156 16.7305 0.785156H17.2461C17.4883 0.785156 17.6914 0.867188 17.8555 1.03125C18.0195 1.1875 18.1016 1.39063 18.1016 1.64062C18.1016 1.88281 18.1016 2.13281 18.1016 2.39062C18.1016 2.64062 18.1016 2.88672 18.1016 3.12891C18.1016 3.37891 18.0195 3.58594 17.8555 3.75C17.6914 3.90625 17.4883 3.98438 17.2461 3.98438H16.7305ZM16.7305 10.6641C16.4883 10.6641 16.2852 10.5859 16.1211 10.4297C15.957 10.2656 15.875 10.0625 15.875 9.82031C15.875 9.40625 15.875 8.99219 15.875 8.57812C15.875 8.16406 15.875 7.75 15.875 7.33594C15.875 7.09375 15.957 6.89453 16.1211 6.73828C16.2852 6.57422 16.4883 6.49219 16.7305 6.49219H17.2461C17.4883 6.49219 17.6914 6.57422 17.8555 6.73828C18.0195 6.89453 18.1016 7.09375 18.1016 7.33594C18.1016 7.75 18.1016 8.16406 18.1016 8.57812C18.1016 8.99219 18.1016 9.40625 18.1016 9.82031C18.1016 10.0625 18.0195 10.2656 17.8555 10.4297C17.6914 10.5859 17.4883 10.6641 17.2461 10.6641H16.7305ZM16.7305 18.3281C16.4883 18.3281 16.2852 18.2461 16.1211 18.082C15.957 17.9258 15.875 17.7227 15.875 17.4727C15.875 16.918 15.875 16.3594 15.875 15.7969C15.875 15.2344 15.875 14.6719 15.875 14.1094C15.875 13.8672 15.957 13.668 16.1211 13.5117C16.2852 13.3477 16.4883 13.2656 16.7305 13.2656H17.2461C17.4883 13.2656 17.6914 13.3477 17.8555 13.5117C18.0195 13.668 18.1016 13.8672 18.1016 14.1094C18.1016 14.6719 18.1016 15.2344 18.1016 15.7969C18.1016 16.3594 18.1016 16.918 18.1016 17.4727C18.1016 17.7227 18.0195 17.9258 17.8555 18.082C17.6914 18.2461 17.4883 18.3281 17.2461 18.3281H16.7305Z" fill="white"/>
</svg>
