<svg width="28" height="23" viewBox="0 0 28 23" fill="none" xmlns="http://www.w3.org/2000/svg">
<path d="M5.63281 8.02344C5.73438 7.60938 5.85156 7.17188 5.98438 6.71094C6.125 6.25 6.26953 5.82422 6.41797 5.43359C6.56641 5.03516 6.70312 4.73047 6.82812 4.51953C6.97656 4.25391 7.14453 4.05859 7.33203 3.93359C7.52734 3.80859 7.77734 3.72266 8.08203 3.67578C8.50391 3.61328 9.20312 3.56641 10.1797 3.53516C11.1562 3.49609 12.4297 3.47656 14 3.47656C15.5703 3.47656 16.8438 3.49609 17.8203 3.53516C18.7969 3.56641 19.4961 3.61328 19.918 3.67578C20.2227 3.72266 20.4688 3.80859 20.6562 3.93359C20.8516 4.05859 21.0234 4.25391 21.1719 4.51953C21.2969 4.73047 21.4336 5.03516 21.582 5.43359C21.7305 5.82422 21.875 6.25 22.0156 6.71094C22.1562 7.17188 22.2734 7.60938 22.3672 8.02344C22.4141 8.23438 22.3945 8.38281 22.3086 8.46875C22.2227 8.55469 22.0703 8.58984 21.8516 8.57422C21.2266 8.52734 20.543 8.48828 19.8008 8.45703C19.0664 8.41797 18.2266 8.39062 17.2812 8.375C16.3438 8.35156 15.25 8.33984 14 8.33984C12.75 8.33984 11.6523 8.35156 10.707 8.375C9.76953 8.39062 8.93359 8.41797 8.19922 8.45703C7.46484 8.48828 6.78516 8.52734 6.16016 8.57422C5.93359 8.58984 5.77734 8.55469 5.69141 8.46875C5.60547 8.38281 5.58594 8.23438 5.63281 8.02344ZM5.55078 16.0039C5.01172 16.0039 4.5625 15.8242 4.20312 15.4648C3.84375 15.0977 3.66406 14.6484 3.66406 14.1172C3.66406 13.5781 3.84375 13.1289 4.20312 12.7695C4.5625 12.4102 5.01172 12.2305 5.55078 12.2305C6.08984 12.2305 6.53906 12.4102 6.89844 12.7695C7.25781 13.1289 7.4375 13.5781 7.4375 14.1172C7.4375 14.6484 7.25781 15.0977 6.89844 15.4648C6.53906 15.8242 6.08984 16.0039 5.55078 16.0039ZM10.9062 15.5352C10.5 15.5352 10.1719 15.4102 9.92188 15.1602C9.67188 14.9102 9.54688 14.582 9.54688 14.1758C9.54688 13.7773 9.67188 13.4531 9.92188 13.2031C10.1719 12.9531 10.5 12.8281 10.9062 12.8281H17.1055C17.5039 12.8281 17.8281 12.9531 18.0781 13.2031C18.3281 13.4531 18.4531 13.7773 18.4531 14.1758C18.4531 14.582 18.3281 14.9102 18.0781 15.1602C17.8281 15.4102 17.5039 15.5352 17.1055 15.5352H10.9062ZM22.4492 16.0039C21.918 16.0039 21.4727 15.8242 21.1133 15.4648C20.7539 15.0977 20.5742 14.6484 20.5742 14.1172C20.5742 13.5781 20.7539 13.1289 21.1133 12.7695C21.4727 12.4102 21.918 12.2305 22.4492 12.2305C22.9883 12.2305 23.4375 12.4102 23.7969 12.7695C24.1562 13.1289 24.3359 13.5781 24.3359 14.1172C24.3359 14.6484 24.1562 15.0977 23.7969 15.4648C23.4375 15.8242 22.9883 16.0039 22.4492 16.0039ZM14 19.168C13.0156 19.168 11.9766 19.1562 10.8828 19.1328C9.78906 19.1094 8.71484 19.0781 7.66016 19.0391C6.60547 18.9922 5.63672 18.9414 4.75391 18.8867C3.87891 18.832 3.16406 18.7734 2.60938 18.7109C1.82031 18.6172 1.21094 18.3555 0.78125 17.9258C0.351562 17.4961 0.136719 16.9062 0.136719 16.1562V14.0938C0.136719 13.4297 0.183594 12.8516 0.277344 12.3594C0.378906 11.8594 0.535156 11.3945 0.746094 10.9648C0.964844 10.5273 1.25781 10.0742 1.625 9.60547L2.60938 8.32812C2.75 7.625 2.92188 6.92969 3.125 6.24219C3.32812 5.55469 3.52734 4.9375 3.72266 4.39062C3.91797 3.84375 4.08594 3.42578 4.22656 3.13672C4.53906 2.47266 4.98828 1.94531 5.57422 1.55469C6.16016 1.15625 6.84375 0.910156 7.625 0.816406C7.88281 0.785156 8.32031 0.757812 8.9375 0.734375C9.5625 0.710938 10.3086 0.691406 11.1758 0.675781C12.0508 0.660156 12.9922 0.652344 14 0.652344C15.0078 0.652344 15.9453 0.660156 16.8125 0.675781C17.6875 0.683594 18.4336 0.699219 19.0508 0.722656C19.6758 0.746094 20.1211 0.777344 20.3867 0.816406C21.1602 0.917969 21.8398 1.16406 22.4258 1.55469C23.0195 1.94531 23.4727 2.47266 23.7852 3.13672C23.918 3.42578 24.082 3.84375 24.2773 4.39062C24.4805 4.9375 24.6797 5.55469 24.875 6.24219C25.0781 6.92969 25.25 7.625 25.3906 8.32812L26.3867 9.60547C26.7461 10.0742 27.0352 10.5273 27.2539 10.9648C27.4727 11.3945 27.6289 11.8594 27.7227 12.3594C27.8164 12.8516 27.8633 13.4297 27.8633 14.0938V16.1562C27.8633 16.9062 27.6484 17.4961 27.2188 17.9258C26.7969 18.3555 26.1875 18.6172 25.3906 18.7109C24.8359 18.7734 24.1172 18.832 23.2344 18.8867C22.3594 18.9414 21.3945 18.9922 20.3398 19.0391C19.2852 19.0781 18.2109 19.1094 17.1172 19.1328C16.0234 19.1562 14.9844 19.168 14 19.168ZM14 17.6328C15 17.6328 16.0391 17.6211 17.1172 17.5977C18.2031 17.5742 19.2578 17.543 20.2812 17.5039C21.3047 17.4648 22.2266 17.4219 23.0469 17.375C23.8672 17.3281 24.5117 17.2734 24.9805 17.2109C25.4805 17.1562 25.8281 17 26.0234 16.7422C26.2266 16.4844 26.3281 16.1328 26.3281 15.6875V14.0938C26.3281 13.5547 26.293 13.0977 26.2227 12.7227C26.1602 12.3398 26.043 11.9805 25.8711 11.6445C25.707 11.3086 25.4727 10.9414 25.168 10.543L23.9609 8.97266C23.8828 8.55078 23.7812 8.09766 23.6562 7.61328C23.5312 7.12891 23.3945 6.64844 23.2461 6.17188C23.0977 5.69531 22.9492 5.25391 22.8008 4.84766C22.6523 4.44141 22.5156 4.10156 22.3906 3.82812C22.1953 3.42969 21.9141 3.10938 21.5469 2.86719C21.1875 2.61719 20.7305 2.45703 20.1758 2.38672C19.9492 2.35547 19.543 2.32422 18.957 2.29297C18.3789 2.26172 17.6641 2.23828 16.8125 2.22266C15.9688 2.19922 15.0312 2.1875 14 2.1875C12.9766 2.1875 12.043 2.19922 11.1992 2.22266C10.3555 2.23828 9.64062 2.26172 9.05469 2.29297C8.46875 2.32422 8.05078 2.35547 7.80078 2.38672C7.26953 2.44922 6.82031 2.60547 6.45312 2.85547C6.08594 3.09766 5.80859 3.42187 5.62109 3.82812C5.49609 4.10156 5.35547 4.44141 5.19922 4.84766C5.05078 5.25391 4.90234 5.69531 4.75391 6.17188C4.60547 6.64844 4.46875 7.12891 4.34375 7.61328C4.21875 8.09766 4.11719 8.55078 4.03906 8.97266L2.84375 10.543C2.53906 10.9414 2.30078 11.3086 2.12891 11.6445C1.96484 11.9805 1.84766 12.3398 1.77734 12.7227C1.70703 13.0977 1.67188 13.5547 1.67188 14.0938V15.6875C1.67188 16.1328 1.77344 16.4844 1.97656 16.7422C2.17969 16.9922 2.52734 17.1484 3.01953 17.2109C3.49609 17.2734 4.14453 17.332 4.96484 17.3867C5.78516 17.4336 6.70312 17.4766 7.71875 17.5156C8.74219 17.5469 9.79688 17.5742 10.8828 17.5977C11.9688 17.6211 13.0078 17.6328 14 17.6328ZM2.29297 22.3906C1.84766 22.3906 1.47656 22.2422 1.17969 21.9453C0.882812 21.6484 0.734375 21.2812 0.734375 20.8438V17.4102L5.22266 18.0547V20.8438C5.22266 21.2812 5.07422 21.6484 4.77734 21.9453C4.48047 22.2422 4.10938 22.3906 3.66406 22.3906H2.29297ZM24.3359 22.3906C23.8984 22.3906 23.5312 22.2422 23.2344 21.9453C22.9375 21.6484 22.7891 21.2812 22.7891 20.8438V18.0547L27.2656 17.4102V20.8438C27.2656 21.2812 27.1172 21.6484 26.8203 21.9453C26.5234 22.2422 26.1562 22.3906 25.7188 22.3906H24.3359Z" fill="white"/>
</svg>
