<svg width="25" height="17" viewBox="0 0 25 17" fill="none" xmlns="http://www.w3.org/2000/svg">
<path d="M3.48242 16.8721C2.5332 16.8721 1.81543 16.6289 1.3291 16.1426C0.842773 15.6621 0.599609 14.9531 0.599609 14.0156V3.31934C0.599609 2.37598 0.842773 1.66406 1.3291 1.18359C1.81543 0.703125 2.5332 0.462891 3.48242 0.462891H21.5088C22.4639 0.462891 23.1816 0.703125 23.6621 1.18359C24.1484 1.66406 24.3916 2.37598 24.3916 3.31934V14.0156C24.3916 14.9531 24.1484 15.6621 23.6621 16.1426C23.1816 16.6289 22.4639 16.8721 21.5088 16.8721H3.48242ZM3.58789 15.1406H21.4033C21.8076 15.1406 22.1182 15.0352 22.335 14.8242C22.5518 14.6133 22.6602 14.2939 22.6602 13.8662V3.45996C22.6602 3.03809 22.5518 2.72168 22.335 2.51074C22.1182 2.2998 21.8076 2.19434 21.4033 2.19434H3.58789C3.17773 2.19434 2.86426 2.2998 2.64746 2.51074C2.43652 2.72168 2.33105 3.03809 2.33105 3.45996V13.8662C2.33105 14.2939 2.43652 14.6133 2.64746 14.8242C2.86426 15.0352 3.17773 15.1406 3.58789 15.1406ZM0.599609 12.5303V11.1855H4.34375C4.70117 11.1855 4.87988 11.001 4.87988 10.6318V6.69434C4.87988 6.3252 4.70117 6.14062 4.34375 6.14062H0.599609V4.78711H4.37012C4.95605 4.78711 5.41309 4.95117 5.74121 5.2793C6.06934 5.60156 6.2334 6.05566 6.2334 6.6416V10.6846C6.2334 11.2646 6.06934 11.7188 5.74121 12.0469C5.41309 12.3691 4.95605 12.5303 4.37012 12.5303H0.599609ZM11.8057 15.4395V1.89551H13.1504V15.4395H11.8057ZM12.4648 12.7852C11.6562 12.7852 10.9414 12.6123 10.3203 12.2666C9.70508 11.915 9.22461 11.4316 8.87891 10.8164C8.5332 10.1953 8.36035 9.47754 8.36035 8.66309C8.36035 7.84277 8.5332 7.12207 8.87891 6.50098C9.22461 5.87988 9.70508 5.39648 10.3203 5.05078C10.9414 4.70508 11.6562 4.53809 12.4648 4.5498C13.2734 4.55566 13.9854 4.73438 14.6006 5.08594C15.2217 5.43164 15.7051 5.91504 16.0508 6.53613C16.4023 7.15137 16.5811 7.86035 16.5869 8.66309C16.5986 9.47754 16.4316 10.1953 16.0859 10.8164C15.7402 11.4375 15.2539 11.9209 14.627 12.2666C14.0059 12.6123 13.2852 12.7852 12.4648 12.7852ZM12.4736 11.4932C13.0303 11.4932 13.5195 11.373 13.9414 11.1328C14.3691 10.8926 14.7031 10.5586 14.9434 10.1309C15.1836 9.70312 15.3066 9.21094 15.3125 8.6543C15.3125 8.09766 15.1924 7.6084 14.9521 7.18652C14.7119 6.76465 14.3779 6.43652 13.9502 6.20215C13.5283 5.96191 13.0361 5.8418 12.4736 5.8418C11.917 5.8418 11.4248 5.96191 10.9971 6.20215C10.5752 6.43652 10.2441 6.76465 10.0039 7.18652C9.76367 7.6084 9.64355 8.09766 9.64355 8.6543C9.64355 9.2168 9.76367 9.71191 10.0039 10.1396C10.2441 10.5615 10.5752 10.8926 10.9971 11.1328C11.4248 11.373 11.917 11.4932 12.4736 11.4932ZM24.3916 12.5303H20.6211C20.0352 12.5303 19.5781 12.3691 19.25 12.0469C18.9277 11.7188 18.7666 11.2646 18.7666 10.6846V6.6416C18.7666 6.05566 18.9277 5.60156 19.25 5.2793C19.5781 4.95117 20.0352 4.78711 20.6211 4.78711H24.3916V6.14062H20.6475C20.29 6.14062 20.1113 6.3252 20.1113 6.69434V10.6318C20.1113 11.001 20.29 11.1855 20.6475 11.1855H24.3916V12.5303Z" fill="#2458E6"/>
</svg>
