<svg width="26" height="26" viewBox="0 0 26 26" fill="none" xmlns="http://www.w3.org/2000/svg">
<path d="M11.8164 25.0664C11.3633 25.0664 10.9727 24.9375 10.6445 24.6797C10.3242 24.4297 10.1133 24.0859 10.0117 23.6484L9.49609 21.457L9.12109 21.3281L7.22266 22.5C6.83984 22.7422 6.44141 22.8359 6.02734 22.7812C5.61328 22.7266 5.24609 22.5391 4.92578 22.2188L3.29688 20.5898C2.96875 20.2695 2.77734 19.9023 2.72266 19.4883C2.67578 19.0742 2.77344 18.6797 3.01562 18.3047L4.19922 16.4062L4.07031 16.0547L1.87891 15.5391C1.44922 15.4375 1.10547 15.2227 0.847656 14.8945C0.589844 14.5664 0.460938 14.1797 0.460938 13.7344V11.4141C0.460938 10.9688 0.585938 10.582 0.835938 10.2539C1.09375 9.92578 1.44141 9.71094 1.87891 9.60938L4.04688 9.08203L4.1875 8.70703L3.00391 6.80859C2.76172 6.43359 2.66406 6.04297 2.71094 5.63672C2.76562 5.22266 2.95703 4.85156 3.28516 4.52344L4.91406 2.88281C5.23438 2.57031 5.59766 2.38672 6.00391 2.33203C6.41797 2.27734 6.81641 2.36719 7.19922 2.60156L9.09766 3.77344L9.49609 3.62109L10.0117 1.42969C10.1133 1 10.3242 0.65625 10.6445 0.398438C10.9727 0.140625 11.3633 0.0117188 11.8164 0.0117188H14.1836C14.6367 0.0117188 15.0234 0.140625 15.3438 0.398438C15.6719 0.65625 15.8867 1 15.9883 1.42969L16.4922 3.62109L16.8906 3.77344L18.8008 2.60156C19.1758 2.36719 19.5703 2.27734 19.9844 2.33203C20.3984 2.38672 20.7617 2.57031 21.0742 2.88281L22.7148 4.52344C23.0352 4.85156 23.2227 5.22266 23.2773 5.63672C23.332 6.04297 23.2383 6.43359 22.9961 6.80859L21.8008 8.70703L21.9531 9.08203L24.1211 9.60938C24.5508 9.71094 24.8945 9.92578 25.1523 10.2539C25.4102 10.582 25.5391 10.9688 25.5391 11.4141V13.7344C25.5391 14.1797 25.4102 14.5664 25.1523 14.8945C24.8945 15.2227 24.5508 15.4375 24.1211 15.5391L21.9297 16.0547L21.7891 16.4062L22.9844 18.3047C23.2266 18.6797 23.3203 19.0742 23.2656 19.4883C23.2109 19.9023 23.0234 20.2695 22.7031 20.5898L21.0625 22.2188C20.7422 22.5391 20.375 22.7266 19.9609 22.7812C19.5469 22.8359 19.1523 22.7422 18.7773 22.5L16.8672 21.3281L16.4922 21.457L15.9883 23.6484C15.8867 24.0859 15.6719 24.4297 15.3438 24.6797C15.0234 24.9375 14.6367 25.0664 14.1836 25.0664H11.8164ZM12.0039 23.2383H13.9961C14.1914 23.2383 14.3008 23.1484 14.3242 22.9688L15.0391 20.0625C15.3984 19.9766 15.7383 19.8672 16.0586 19.7344C16.3789 19.5938 16.6641 19.4453 16.9141 19.2891L19.4688 20.8594C19.6172 20.9609 19.7656 20.9414 19.9141 20.8008L21.2852 19.418C21.418 19.3008 21.4336 19.1562 21.332 18.9844L19.7617 16.4531C19.9023 16.2031 20.0391 15.918 20.1719 15.5977C20.3125 15.2773 20.4297 14.9375 20.5234 14.5781L23.4414 13.8867C23.6211 13.8555 23.7109 13.7422 23.7109 13.5469V11.5898C23.7109 11.4023 23.6211 11.2891 23.4414 11.25L20.5352 10.5469C20.4414 10.1641 20.3203 9.80859 20.1719 9.48047C20.0234 9.15234 19.8945 8.87891 19.7852 8.66016L21.3438 6.12891C21.4531 5.95703 21.4414 5.80469 21.3086 5.67188L19.9258 4.3125C19.7852 4.1875 19.6328 4.16797 19.4688 4.25391L16.9258 5.80078C16.668 5.66016 16.3789 5.52344 16.0586 5.39062C15.7461 5.25 15.4062 5.13281 15.0391 5.03906L14.3242 2.10938C14.3008 1.92969 14.1914 1.83984 13.9961 1.83984H12.0039C11.8086 1.83984 11.6953 1.92969 11.6641 2.10938L10.9727 5.01562C10.6211 5.10938 10.2734 5.22656 9.92969 5.36719C9.59375 5.50781 9.30078 5.64844 9.05078 5.78906L6.51953 4.25391C6.36328 4.16797 6.21484 4.1875 6.07422 4.3125L4.67969 5.67188C4.55469 5.80469 4.54297 5.95703 4.64453 6.12891L6.20312 8.66016C6.10156 8.87891 5.97266 9.15234 5.81641 9.48047C5.66797 9.80859 5.54688 10.1641 5.45312 10.5469L2.55859 11.25C2.37891 11.2891 2.28906 11.4023 2.28906 11.5898V13.5469C2.28906 13.7422 2.37891 13.8555 2.55859 13.8867L5.46484 14.5781C5.55859 14.9375 5.67578 15.2773 5.81641 15.5977C5.95703 15.918 6.09375 16.2031 6.22656 16.4531L4.65625 18.9844C4.5625 19.1562 4.57812 19.3008 4.70312 19.418L6.08594 20.8008C6.23438 20.9414 6.37891 20.9609 6.51953 20.8594L9.07422 19.2891C9.32422 19.4453 9.60938 19.5938 9.92969 19.7344C10.2578 19.8672 10.6016 19.9766 10.9609 20.0625L11.6641 22.9688C11.6953 23.1484 11.8086 23.2383 12.0039 23.2383ZM13 17.0156C12.1797 17.0156 11.4297 16.8125 10.75 16.4062C10.0781 16 9.53906 15.4609 9.13281 14.7891C8.72656 14.1094 8.52344 13.3594 8.52344 12.5391C8.52344 11.7266 8.72656 10.9844 9.13281 10.3125C9.53906 9.63281 10.0781 9.09375 10.75 8.69531C11.4297 8.28906 12.1797 8.08594 13 8.08594C13.8203 8.08594 14.5664 8.28906 15.2383 8.69531C15.918 9.09375 16.457 9.63281 16.8555 10.3125C17.2617 10.9844 17.4648 11.7266 17.4648 12.5391C17.4648 13.3594 17.2617 14.1094 16.8555 14.7891C16.457 15.4688 15.918 16.0117 15.2383 16.418C14.5664 16.8164 13.8203 17.0156 13 17.0156ZM13 15.1992C13.4766 15.1992 13.9141 15.0781 14.3125 14.8359C14.7109 14.5938 15.0273 14.2734 15.2617 13.875C15.5039 13.4688 15.625 13.0234 15.625 12.5391C15.625 12.0547 15.5039 11.6133 15.2617 11.2148C15.0273 10.8164 14.7109 10.5 14.3125 10.2656C13.9141 10.0234 13.4766 9.90234 13 9.90234C12.5156 9.90234 12.0703 10.0234 11.6641 10.2656C11.2656 10.5 10.9453 10.8164 10.7031 11.2148C10.4688 11.6133 10.3516 12.0547 10.3516 12.5391C10.3516 13.0312 10.4688 13.4805 10.7031 13.8867C10.9453 14.2852 11.2656 14.6055 11.6641 14.8477C12.0703 15.082 12.5156 15.1992 13 15.1992Z" fill="white"/>
</svg>
