<svg width="34" height="23" viewBox="0 0 34 23" fill="none" xmlns="http://www.w3.org/2000/svg">
<path d="M17 22.9648C15.4375 22.9648 13.9648 22.6641 12.582 22.0625C11.207 21.4688 9.99219 20.6484 8.9375 19.6016C7.89062 18.5469 7.06641 17.332 6.46484 15.957C5.87109 14.5742 5.57422 13.1016 5.57422 11.5391C5.57422 9.97656 5.87109 8.50781 6.46484 7.13281C7.06641 5.75 7.89062 4.53125 8.9375 3.47656C9.99219 2.42188 11.207 1.59766 12.582 1.00391C13.957 0.410156 15.4258 0.113281 16.9883 0.113281C18.5508 0.113281 20.0234 0.414063 21.4062 1.01562C22.7891 1.60938 24.0039 2.43359 25.0508 3.48828C26.1055 4.53516 26.9336 5.75 27.5352 7.13281C28.1367 8.50781 28.4375 9.97656 28.4375 11.5391C28.4375 13.1016 28.1367 14.5742 27.5352 15.957C26.9336 17.332 26.1055 18.5469 25.0508 19.6016C24.0039 20.6484 22.7891 21.4688 21.4062 22.0625C20.0312 22.6641 18.5625 22.9648 17 22.9648ZM17 20.9727C18.3125 20.9727 19.5391 20.7305 20.6797 20.2461C21.8203 19.7617 22.8242 19.0859 23.6914 18.2188C24.5586 17.3516 25.2344 16.3477 25.7188 15.207C26.2031 14.0664 26.4453 12.8438 26.4453 11.5391C26.4375 10.2266 26.1875 9 25.6953 7.85938C25.2109 6.71875 24.5352 5.71875 23.668 4.85938C22.8086 3.99219 21.8086 3.31641 20.668 2.83203C19.5273 2.33984 18.3008 2.09375 16.9883 2.09375C15.6836 2.09375 14.4609 2.33984 13.3203 2.83203C12.1797 3.31641 11.1797 3.99219 10.3203 4.85938C9.46094 5.71875 8.78906 6.71875 8.30469 7.85938C7.82031 9 7.57812 10.2266 7.57812 11.5391C7.57812 12.8516 7.82031 14.0781 8.30469 15.2188C8.78906 16.3594 9.46094 17.3633 10.3203 18.2305C11.1875 19.0898 12.1914 19.7617 13.332 20.2461C14.4727 20.7305 15.6953 20.9727 17 20.9727ZM0.277344 11.5391C0.277344 9.67969 0.5625 7.91016 1.13281 6.23047C1.70312 4.55078 2.5 3.01563 3.52344 1.625C3.70312 1.38281 3.92969 1.24609 4.20312 1.21484C4.48438 1.18359 4.74219 1.26172 4.97656 1.44922C5.19531 1.62891 5.31641 1.84766 5.33984 2.10547C5.36328 2.36328 5.28906 2.60547 5.11719 2.83203C4.22656 4.05859 3.53125 5.41016 3.03125 6.88672C2.53125 8.35547 2.28125 9.90625 2.28125 11.5391C2.28125 13.1641 2.53125 14.7148 3.03125 16.1914C3.53125 17.668 4.22656 19.0117 5.11719 20.2227C5.28906 20.457 5.35938 20.7031 5.32812 20.9609C5.30469 21.2188 5.1875 21.4375 4.97656 21.6172C4.74219 21.8047 4.48438 21.8828 4.20312 21.8516C3.92969 21.8281 3.70312 21.6914 3.52344 21.4414C2.5 20.0508 1.70312 18.5156 1.13281 16.8359C0.5625 15.1562 0.277344 13.3906 0.277344 11.5391ZM33.7227 11.5391C33.7227 13.3906 33.4375 15.1562 32.8672 16.8359C32.2969 18.5156 31.5 20.0508 30.4766 21.4414C30.2969 21.6914 30.0664 21.8281 29.7852 21.8516C29.5117 21.8828 29.2578 21.8047 29.0234 21.6172C28.8125 21.4375 28.6953 21.2188 28.6719 20.9609C28.6484 20.7031 28.7188 20.457 28.8828 20.2227C29.7812 19.0117 30.4766 17.668 30.9688 16.1914C31.4688 14.7148 31.7188 13.1641 31.7188 11.5391C31.7188 9.90625 31.4688 8.35547 30.9688 6.88672C30.4766 5.41016 29.7812 4.05859 28.8828 2.83203C28.7188 2.60547 28.6445 2.36328 28.6602 2.10547C28.6836 1.84766 28.8047 1.62891 29.0234 1.44922C29.2578 1.26172 29.5117 1.18359 29.7852 1.21484C30.0664 1.24609 30.2969 1.38281 30.4766 1.625C31.5 3.01563 32.2969 4.55078 32.8672 6.23047C33.4375 7.91016 33.7227 9.67969 33.7227 11.5391ZM16.9883 13.6484C16.3867 13.6484 16.0781 13.3398 16.0625 12.7227L15.9102 6.52344C15.9023 6.22656 15.9961 5.98047 16.1914 5.78516C16.3945 5.58984 16.6562 5.49219 16.9766 5.49219C17.2891 5.49219 17.5469 5.59375 17.75 5.79688C17.9609 5.99219 18.0625 6.23828 18.0547 6.53516L17.8789 12.7227C17.8711 13.3398 17.5742 13.6484 16.9883 13.6484ZM16.9883 17.457C16.6445 17.457 16.3477 17.3398 16.0977 17.1055C15.8477 16.8633 15.7227 16.5742 15.7227 16.2383C15.7227 15.9023 15.8477 15.6172 16.0977 15.3828C16.3477 15.1406 16.6445 15.0195 16.9883 15.0195C17.332 15.0195 17.6289 15.1367 17.8789 15.3711C18.1289 15.6055 18.2539 15.8945 18.2539 16.2383C18.2539 16.582 18.125 16.8711 17.8672 17.1055C17.6172 17.3398 17.3242 17.457 16.9883 17.457Z" fill="white"/>
</svg>
